<svg xmlns="http://www.w3.org/2000/svg" xmlns:xlink="http://www.w3.org/1999/xlink" viewBox="0,0,256,256" width="96px" height="96px"><g fill="#ebe8e8" fill-rule="nonzero" stroke="none" stroke-width="1" stroke-linecap="butt" stroke-linejoin="miter" stroke-miterlimit="10" stroke-dasharray="" stroke-dashoffset="0" font-family="none" font-weight="none" font-size="none" text-anchor="none" style="mix-blend-mode: normal"><g transform="scale(10.66667,10.66667)"><path d="M2.926,13.098l3.085,1.209c0.326,0.128 0.578,0.395 0.688,0.727l1.287,3.918c0.274,0.835 1.301,1.134 1.98,0.576l2.228,-1.829c0.282,-0.232 0.692,-0.22 0.961,0.028l2.851,2.63c1.035,0.955 2.716,0.408 2.991,-0.973l2.979,-14.961c0.186,-0.935 -0.747,-1.698 -1.627,-1.33l-17.454,7.3c-1.208,0.507 -1.189,2.227 0.031,2.705z" opacity="0.35"></path><path d="M11.458,16.271l6.99,-9.163c0.328,-0.43 -0.211,-0.982 -0.648,-0.665l-11.333,8.202c0.098,0.115 0.184,0.242 0.232,0.389l1.287,3.918c0.126,0.383 0.413,0.647 0.75,0.773c0.903,0.256 2.722,-3.454 2.722,-3.454z"></path></g></g></svg>