<svg xmlns="http://www.w3.org/2000/svg" xmlns:xlink="http://www.w3.org/1999/xlink" viewBox="0,0,256,256" width="96px" height="96px"><g fill="#ebe8e8" fill-rule="nonzero" stroke="none" stroke-width="1" stroke-linecap="butt" stroke-linejoin="miter" stroke-miterlimit="10" stroke-dasharray="" stroke-dashoffset="0" font-family="none" font-weight="none" font-size="none" text-anchor="none" style="mix-blend-mode: normal"><g transform="scale(10.66667,10.66667)"><path d="M12,2c-5.523,0 -10,4.477 -10,10c0,1.592 0.382,3.091 1.043,4.427l-1.005,4.019c-0.229,0.915 0.6,1.745 1.516,1.516l4.019,-1.005c1.336,0.661 2.835,1.043 4.427,1.043c5.523,0 10,-4.477 10,-10c0,-5.523 -4.477,-10 -10,-10z" opacity="0.35"></path><path d="M16.393,13.467c-0.809,-0.809 -2.121,-0.809 -2.93,0l-0.516,0.516l-2.93,-2.93l0.516,-0.516c0.809,-0.809 0.809,-2.121 0,-2.93c-0.809,-0.809 -2.121,-0.809 -2.93,0c-0.517,0.517 -0.7,1.239 -0.556,1.904c0.123,0.919 0.606,3.029 2.509,4.932c1.903,1.903 4.013,2.386 4.932,2.509c0.665,0.144 1.387,-0.039 1.904,-0.556c0.81,-0.809 0.81,-2.12 0.001,-2.929z"></path></g></g></svg>