<svg width="150" height="150" viewBox="0 0 150 150" fill="none" xmlns="http://www.w3.org/2000/svg">
<circle cx="76.4393" cy="74.4707" r="63.4864" fill="#D9D9D9"/>
<path d="M75 10C39.1037 10 10 39.1037 10 75C10 110.896 39.1037 140 75 140C110.896 140 140 110.896 140 75C140 39.1037 110.896 10 75 10ZM97.6471 53.3333H88.2817C82.4533 53.3333 80.4167 56.41 80.4167 62.6392V69.5833H97.5008L95.1825 85.8333H80.4167V128.896C78.6346 129.069 76.8308 129.167 75 129.167C71.2896 129.167 67.6658 128.788 64.1667 128.078V85.8333H47.9167V69.5833H64.1667V60.8571C64.1667 44.3363 72.2158 37.0833 85.9471 37.0833C92.5229 37.0833 96.0004 37.5708 97.6471 37.7929V53.3333Z" fill="#616060"/>
</svg>
