<svg xmlns="http://www.w3.org/2000/svg" xmlns:xlink="http://www.w3.org/1999/xlink" viewBox="0,0,256,256" width="96px" height="96px"><g fill="#ebe8e8" fill-rule="nonzero" stroke="none" stroke-width="1" stroke-linecap="butt" stroke-linejoin="miter" stroke-miterlimit="10" stroke-dasharray="" stroke-dashoffset="0" font-family="none" font-weight="none" font-size="none" text-anchor="none" style="mix-blend-mode: normal"><g transform="scale(10.66667,10.66667)"><path d="M14.082,13.121c-0.331,-0.198 -0.835,-0.369 -1.099,-0.369c-0.181,0 -0.397,0.138 -0.529,0.271c-0.339,0.339 -0.451,0.764 -1.046,0.764c-0.582,0 -1.599,-0.592 -2.328,-1.358c-0.766,-0.73 -1.358,-1.746 -1.358,-2.328c0,-0.595 0.417,-0.714 0.756,-1.054c0.132,-0.132 0.278,-0.348 0.278,-0.529c0,-0.264 -0.171,-0.761 -0.369,-1.091c-0.476,-0.795 -0.622,-1.06 -1.107,-1.634c-0.164,-0.195 -0.351,-0.284 -0.546,-0.284c-0.331,-0.001 -0.765,0.163 -1.059,0.382c-0.442,0.329 -0.904,0.778 -1.027,1.337c-0.017,0.076 -0.027,0.152 -0.03,0.229c-0.023,0.582 0.205,1.173 0.452,1.673c0.581,1.179 1.35,2.32 2.186,3.34c0.267,0.326 0.559,0.629 0.86,0.922c0.293,0.301 0.596,0.592 0.922,0.86c1.019,0.837 2.16,1.605 3.34,2.186c0.496,0.244 1.079,0.469 1.656,0.452c0.082,-0.003 0.165,-0.012 0.247,-0.03c0.559,-0.123 1.007,-0.586 1.337,-1.027c0.219,-0.294 0.383,-0.727 0.382,-1.059c-0.001,-0.196 -0.089,-0.382 -0.284,-0.546c-0.575,-0.484 -0.84,-0.63 -1.634,-1.107z" opacity="0.35"></path><path d="M17,11.5c-0.552,0 -1,-0.448 -1,-1c0,-2.481 -2.019,-4.5 -4.5,-4.5c-0.552,0 -1,-0.448 -1,-1c0,-0.552 0.448,-1 1,-1c3.584,0 6.5,2.916 6.5,6.5c0,0.552 -0.448,1 -1,1z" opacity="0.35"></path><path d="M14,11.5c-0.552,0 -1,-0.448 -1,-1c0,-0.827 -0.673,-1.5 -1.5,-1.5c-0.552,0 -1,-0.448 -1,-1c0,-0.552 0.448,-1 1,-1c1.93,0 3.5,1.57 3.5,3.5c0,0.552 -0.448,1 -1,1z" opacity="0.35"></path><path d="M14.404,2h-5.808c-3.643,0 -6.596,2.953 -6.596,6.596v3.808c0,3.091 2.13,5.679 5,6.393v3.777c0,0.473 0.595,0.681 0.89,0.312l3.11,-3.886h3.404c3.643,0 6.596,-2.953 6.596,-6.596v-3.808c0,-3.643 -2.953,-6.596 -6.596,-6.596zM15.618,15.833c-0.33,0.442 -0.778,0.904 -1.337,1.028c-0.082,0.018 -0.164,0.027 -0.247,0.03c-0.576,0.017 -1.16,-0.208 -1.656,-0.452c-1.179,-0.581 -2.32,-1.35 -3.34,-2.186c-0.326,-0.268 -0.629,-0.559 -0.922,-0.86c-0.302,-0.293 -0.593,-0.596 -0.86,-0.922c-0.836,-1.02 -1.605,-2.162 -2.186,-3.341c-0.247,-0.5 -0.475,-1.091 -0.452,-1.673c0.003,-0.077 0.013,-0.153 0.03,-0.229c0.123,-0.559 0.585,-1.008 1.027,-1.337c0.294,-0.219 0.728,-0.383 1.059,-0.382c0.196,0 0.382,0.089 0.546,0.284c0.485,0.574 0.631,0.84 1.107,1.634c0.198,0.331 0.369,0.827 0.369,1.091c0,0.181 -0.146,0.397 -0.278,0.529c-0.339,0.339 -0.756,0.458 -0.756,1.053c0,0.582 0.592,1.599 1.358,2.328c0.73,0.766 1.746,1.358 2.328,1.358c0.595,0 0.706,-0.425 1.046,-0.764c0.132,-0.133 0.349,-0.271 0.529,-0.271c0.264,0 0.768,0.171 1.099,0.369c0.794,0.477 1.059,0.623 1.634,1.107c0.195,0.165 0.284,0.352 0.284,0.548c0,0.331 -0.164,0.764 -0.382,1.058zM10.5,8c0,-0.552 0.448,-1 1,-1c1.93,0 3.5,1.57 3.5,3.5c0,0.552 -0.448,1 -1,1c-0.552,0 -1,-0.448 -1,-1c0,-0.827 -0.673,-1.5 -1.5,-1.5c-0.552,0 -1,-0.448 -1,-1zM17,11.5c-0.552,0 -1,-0.448 -1,-1c0,-2.481 -2.019,-4.5 -4.5,-4.5c-0.552,0 -1,-0.448 -1,-1c0,-0.552 0.448,-1 1,-1c3.584,0 6.5,2.916 6.5,6.5c0,0.552 -0.448,1 -1,1z"></path></g></g></svg>