<svg width="150" height="150" viewBox="0 0 150 150" fill="none" xmlns="http://www.w3.org/2000/svg">
<circle cx="74.5" cy="75.5" r="61.5" fill="#D9D9D9"/>
<path d="M75 10C39.16 10 10 39.16 10 75C10 110.84 39.16 140 75 140C110.84 140 140 110.84 140 75C140 39.16 110.84 10 75 10ZM58.3301 30H91.6602C107.285 30 120 42.7101 120 58.3301V91.6602C120 107.285 107.29 120 91.6699 120H58.3398C42.7148 120 30 107.29 30 91.6699V58.3398C30 42.7148 42.7101 30 58.3301 30ZM58.3301 40C48.2251 40 40 48.2298 40 58.3398V91.6699C40 101.775 48.2298 110 58.3398 110H91.6699C101.775 110 110 101.77 110 91.6602V58.3301C110 48.2251 101.77 40 91.6602 40H58.3301ZM98.3398 48.3301C100.18 48.3301 101.67 49.8202 101.67 51.6602C101.67 53.5002 100.18 55 98.3398 55C96.4998 55 95 53.5002 95 51.6602C95 49.8202 96.4998 48.3301 98.3398 48.3301ZM75 50C88.785 50 100 61.215 100 75C100 88.785 88.785 100 75 100C61.215 100 50 88.785 50 75C50 61.215 61.215 50 75 50ZM75 60C71.0218 60 67.2064 61.5803 64.3934 64.3934C61.5803 67.2064 60 71.0218 60 75C60 78.9782 61.5803 82.7936 64.3934 85.6066C67.2064 88.4197 71.0218 90 75 90C78.9782 90 82.7936 88.4197 85.6066 85.6066C88.4197 82.7936 90 78.9782 90 75C90 71.0218 88.4197 67.2064 85.6066 64.3934C82.7936 61.5803 78.9782 60 75 60Z" fill="#616060"/>
</svg>
