<svg width="147" height="146" viewBox="0 0 147 146" fill="none" xmlns="http://www.w3.org/2000/svg">
<path d="M135.88 33.87C114.04 0.200028 69.45 -9.80997 34.87 11.12C1.20001 32.05 -9.71999 77.55 12.12 111.22L13.94 113.95L6.66001 141.25L33.96 133.97L36.69 135.79C48.52 142.16 61.26 145.8 74 145.8C87.65 145.8 101.3 142.16 113.13 134.88C146.8 113.04 156.81 68.45 135.88 33.87ZM116.77 103.94C113.13 109.4 108.58 113.04 102.21 113.95C98.57 113.95 94.02 115.77 75.82 108.49C60.35 101.21 47.61 89.38 38.51 75.73C33.05 69.36 30.32 61.17 29.41 52.98C29.41 45.7 32.14 39.33 36.69 34.78C38.51 32.96 40.33 32.05 42.15 32.05H46.7C48.52 32.05 50.34 32.05 51.25 35.69C53.07 40.24 57.62 51.16 57.62 52.07C58.53 52.98 58.53 54.8 57.62 55.71C58.53 57.53 57.62 59.35 56.71 60.26C55.8 61.17 54.89 62.99 53.98 63.9C52.16 64.81 51.25 66.63 52.16 68.45C55.8 73.91 60.35 79.37 64.9 83.92C70.36 88.47 75.82 92.11 82.19 94.84C84.01 95.75 85.83 95.75 86.74 93.93C87.65 92.11 92.2 87.56 94.02 85.74C95.84 83.92 96.75 83.92 98.57 84.83L113.13 92.11C114.95 93.02 116.77 93.93 117.68 94.84C118.59 97.57 118.59 101.21 116.77 103.94Z" fill="url(#paint0_linear_1_14)"/>
<defs>
<linearGradient id="paint0_linear_1_14" x1="54.5008" y1="-56.5" x2="23.5008" y2="139" gradientUnits="userSpaceOnUse">
<stop stop-color="#419F10"/>
<stop offset="1" stop-color="#7FEDCA"/>
</linearGradient>
</defs>
</svg>
