<svg width="149" height="149" viewBox="0 0 149 149" fill="none" xmlns="http://www.w3.org/2000/svg">
<path d="M79.5432 0.152588C117.348 0.152588 148.279 31.0836 148.279 68.8881V79.6274C148.279 117.432 117.348 148.363 79.5432 148.363H68.8038C30.9993 148.363 0.0683594 117.432 0.0683594 79.6274V68.8881C0.0683594 31.0836 30.9993 0.152588 68.8038 0.152588H79.5432ZM75.5247 37.4038L74.5684 37.4026C66.6051 37.4026 58.6418 37.6658 58.6418 37.6658C47.0106 37.6658 37.5816 47.0948 37.5816 58.726C37.5816 58.726 37.3398 65.5638 37.3197 72.9032L37.3184 73.8629C37.3184 82.0805 37.5816 90.5792 37.5816 90.5792C37.5816 102.21 47.0106 111.639 58.6418 111.639C58.6418 111.639 66.0872 111.903 73.7787 111.903C81.9964 111.903 90.7583 111.639 90.7583 111.639C102.39 111.639 111.555 102.474 111.555 90.8426C111.555 90.8426 111.818 82.4395 111.818 74.3895L111.814 72.5003C111.778 65.2777 111.555 58.4626 111.555 58.4626C111.555 46.8314 102.389 37.6658 90.7582 37.6658C90.7582 37.6658 83.1766 37.4232 75.5247 37.4038ZM74.5684 44.1074C81.0984 44.1074 89.471 44.3234 89.471 44.3234C99.0086 44.3234 104.897 50.2121 104.897 59.7498C104.897 59.7498 105.113 67.9794 105.113 74.4364C105.113 81.0375 104.897 89.5549 104.897 89.5549C104.897 99.0926 99.0086 104.981 89.471 104.981C89.471 104.981 82.0667 105.163 75.6424 105.193L73.9208 105.197C67.6138 105.197 59.9289 104.981 59.9289 104.981C50.3915 104.981 44.2393 98.829 44.2393 89.2917C44.2393 89.2917 44.0234 80.7433 44.0234 74.0048C44.0234 67.6978 44.2393 59.7498 44.2393 59.7498C44.2393 50.2121 50.3916 44.3234 59.9289 44.3234C59.9289 44.3234 68.0383 44.1074 74.5684 44.1074ZM74.5682 55.5709C64.0297 55.5709 55.4867 64.1139 55.4867 74.6523C55.4867 85.1908 64.0297 93.7338 74.5682 93.7338C85.1067 93.7338 93.6497 85.1908 93.6497 74.6523C93.6497 64.1139 85.1067 55.5709 74.5682 55.5709ZM74.5682 62.2357C81.4258 62.2357 86.9849 67.7947 86.9849 74.6523C86.9849 81.5099 81.4258 87.069 74.5682 87.069C67.7108 87.069 62.1515 81.5099 62.1515 74.6523C62.1515 67.7947 67.7106 62.2357 74.5682 62.2357ZM94.5628 50.2756C92.0165 50.2756 89.9521 52.3502 89.9521 54.9091C89.9521 57.468 92.0165 59.5423 94.5628 59.5423C97.1091 59.5423 99.1732 57.468 99.1732 54.9091C99.1732 52.35 97.1091 50.2756 94.5628 50.2756Z" fill="url(#paint0_linear_1_23)"/>
<defs>
<linearGradient id="paint0_linear_1_23" x1="169.002" y1="66.5" x2="36.002" y2="49" gradientUnits="userSpaceOnUse">
<stop stop-color="#419F10"/>
<stop offset="1" stop-color="#7EECC8"/>
</linearGradient>
</defs>
</svg>
